<svg width="298" height="84" viewBox="0 0 298 84" fill="none" xmlns="http://www.w3.org/2000/svg">
<path d="M110.539 54.2734C110.539 57.6328 109.367 60.1914 107.023 61.9492C104.699 63.707 101.213 64.5859 96.5645 64.5859C94.1816 64.5859 92.1504 64.4199 90.4707 64.0879C88.791 63.7754 87.2188 63.3066 85.7539 62.6816V55.2988C87.4141 56.0801 89.2793 56.7344 91.3496 57.2617C93.4395 57.7891 95.2754 58.0527 96.8574 58.0527C100.1 58.0527 101.721 57.1152 101.721 55.2402C101.721 54.5371 101.506 53.9707 101.076 53.541C100.646 53.0918 99.9043 52.5938 98.8496 52.0469C97.7949 51.4805 96.3887 50.8262 94.6309 50.084C92.1113 49.0293 90.2559 48.0527 89.0645 47.1543C87.8926 46.2559 87.0332 45.2305 86.4863 44.0781C85.959 42.9062 85.6953 41.4707 85.6953 39.7715C85.6953 36.8613 86.8184 34.6152 89.0645 33.0332C91.3301 31.4316 94.5332 30.6309 98.6738 30.6309C102.619 30.6309 106.457 31.4902 110.188 33.209L107.492 39.6543C105.852 38.9512 104.318 38.375 102.893 37.9258C101.467 37.4766 100.012 37.252 98.5273 37.252C95.8906 37.252 94.5723 37.9648 94.5723 39.3906C94.5723 40.1914 94.9922 40.8848 95.832 41.4707C96.6914 42.0566 98.5566 42.9258 101.428 44.0781C103.986 45.1133 105.861 46.0801 107.053 46.9785C108.244 47.877 109.123 48.9121 109.689 50.084C110.256 51.2559 110.539 52.6523 110.539 54.2734ZM140.715 64L139.514 59.8105H139.045C138.088 61.334 136.73 62.5156 134.973 63.3555C133.215 64.1758 131.213 64.5859 128.967 64.5859C125.119 64.5859 122.219 63.5605 120.266 61.5098C118.312 59.4395 117.336 56.4707 117.336 52.6035V31.2461H126.271V50.377C126.271 52.7402 126.691 54.5176 127.531 55.709C128.371 56.8809 129.709 57.4668 131.545 57.4668C134.045 57.4668 135.852 56.6367 136.965 54.9766C138.078 53.2969 138.635 50.5234 138.635 46.6562V31.2461H147.57V64H140.715ZM174.934 64.5859C171.086 64.5859 168.068 63.1895 165.881 60.3965H165.412C165.725 63.1309 165.881 64.7129 165.881 65.1426V78.4141H156.945V31.2461H164.211L165.471 35.4941H165.881C167.971 32.252 171.066 30.6309 175.168 30.6309C179.035 30.6309 182.062 32.125 184.25 35.1133C186.438 38.1016 187.531 42.252 187.531 47.5645C187.531 51.0605 187.014 54.0977 185.979 56.6758C184.963 59.2539 183.508 61.2168 181.613 62.5645C179.719 63.9121 177.492 64.5859 174.934 64.5859ZM172.297 37.7793C170.09 37.7793 168.479 38.4629 167.463 39.8301C166.447 41.1777 165.92 43.4141 165.881 46.5391V47.5059C165.881 51.0215 166.398 53.541 167.434 55.0645C168.488 56.5879 170.148 57.3496 172.414 57.3496C176.418 57.3496 178.42 54.0488 178.42 47.4473C178.42 44.2246 177.922 41.8125 176.926 40.2109C175.949 38.5898 174.406 37.7793 172.297 37.7793ZM208.479 36.9883C206.584 36.9883 205.1 37.5938 204.025 38.8047C202.951 39.9961 202.336 41.6953 202.18 43.9023H214.719C214.68 41.6953 214.104 39.9961 212.99 38.8047C211.877 37.5938 210.373 36.9883 208.479 36.9883ZM209.738 64.5859C204.465 64.5859 200.344 63.1309 197.375 60.2207C194.406 57.3105 192.922 53.1895 192.922 47.8574C192.922 42.3691 194.289 38.1309 197.023 35.1426C199.777 32.1348 203.576 30.6309 208.42 30.6309C213.049 30.6309 216.652 31.9492 219.23 34.5859C221.809 37.2227 223.098 40.8652 223.098 45.5137V49.8496H201.975C202.072 52.3887 202.824 54.3711 204.23 55.7969C205.637 57.2227 207.609 57.9355 210.148 57.9355C212.121 57.9355 213.986 57.7305 215.744 57.3203C217.502 56.9102 219.338 56.2559 221.252 55.3574V62.2715C219.689 63.0527 218.02 63.6289 216.242 64C214.465 64.3906 212.297 64.5859 209.738 64.5859ZM248.645 30.6309C249.855 30.6309 250.861 30.7188 251.662 30.8945L250.988 39.2734C250.266 39.0781 249.387 38.9805 248.352 38.9805C245.5 38.9805 243.273 39.7129 241.672 41.1777C240.09 42.6426 239.299 44.6934 239.299 47.3301V64H230.363V31.2461H237.131L238.449 36.7539H238.889C239.904 34.918 241.271 33.4434 242.99 32.3301C244.729 31.1973 246.613 30.6309 248.645 30.6309Z" fill="white"/>
<rect x="36" y="72" width="36" height="36" rx="8" transform="rotate(180 36 72)" fill="#84CF0A"/>
<rect x="54" y="54" width="36" height="36" rx="8" transform="rotate(180 54 54)" fill="#D94646"/>
<rect x="72" y="36" width="36" height="36" rx="8" transform="rotate(180 72 36)" fill="#1ABCFE"/>
</svg>
