<?xml version="1.0" standalone="no"?>
<!DOCTYPE svg PUBLIC "-//W3C//DTD SVG 20010904//EN"
 "http://www.w3.org/TR/2001/REC-SVG-20010904/DTD/svg10.dtd">
<svg version="1.0" xmlns="http://www.w3.org/2000/svg"
 width="136.000000pt" height="136.000000pt" viewBox="0 0 136.000000 136.000000"
 preserveAspectRatio="xMidYMid meet">
<metadata>
Created by potrace 1.11, written by Peter Selinger 2001-2013
</metadata>
<g transform="translate(0.000000,136.000000) scale(0.100000,-0.100000)"
fill="#000000" stroke="none">
<path d="M505 1331 c-97 -25 -155 -55 -210 -108 -76 -75 -103 -147 -100 -264
2 -78 11 -126 27 -146 6 -7 8 -20 4 -28 -3 -9 -2 -13 4 -10 8 5 32 -27 27 -36
-1 -2 0 -3 1 -2 10 5 52 -43 47 -55 -2 -7 -1 -11 4 -7 10 6 71 -26 71 -37 0
-5 7 -8 16 -8 9 0 12 -5 8 -12 -4 -6 -3 -8 4 -5 5 4 18 4 27 1 13 -6 14 -9 3
-16 -9 -7 -8 -8 5 -4 10 3 39 -4 65 -16 26 -12 50 -21 55 -20 4 1 7 -2 7 -8 0
-6 3 -10 8 -9 15 2 52 -14 52 -22 0 -5 3 -8 8 -8 20 3 32 -2 26 -13 -4 -7 -3
-8 4 -4 14 8 52 -14 52 -30 0 -55 -277 -13 -437 65 -43 21 -80 37 -83 34 -7
-6 -8 -412 -1 -411 25 2 52 -4 63 -15 7 -8 19 -12 27 -9 8 3 11 0 7 -7 -5 -7
-1 -9 9 -5 9 4 22 -1 31 -12 9 -11 13 -13 9 -6 -7 14 31 17 40 3 3 -6 13 -9
23 -9 9 0 51 -3 92 -7 41 -4 82 -7 90 -7 8 -1 21 -6 29 -12 11 -8 13 -8 8 0
-5 8 5 12 31 12 20 0 49 2 65 5 19 4 25 2 20 -6 -5 -9 -2 -8 8 0 9 7 39 14 66
15 28 2 49 6 48 9 -2 3 13 11 33 18 68 23 98 40 144 84 11 10 27 16 35 13 13
-5 14 -4 4 8 -10 11 -8 17 7 28 11 7 20 16 21 20 1 4 9 25 18 45 23 54 24 58
28 158 8 187 -56 284 -254 383 -56 29 -106 52 -110 52 -5 0 -34 12 -66 26 -42
20 -54 29 -44 36 10 7 8 8 -8 3 -12 -3 -24 -1 -28 5 -7 12 97 15 109 3 7 -8
12 -9 54 -11 13 -1 21 -5 19 -9 -3 -5 6 -9 19 -9 29 -2 134 -43 134 -53 0 -14
53 -5 58 9 3 8 12 33 22 55 9 22 26 61 36 87 10 25 23 44 28 41 5 -4 6 -1 2 5
-3 6 5 39 18 72 l25 61 -57 26 c-87 39 -130 53 -219 73 -111 24 -294 25 -388
1z"/>
<path d="M936 902 c-3 -5 1 -9 9 -9 8 0 12 4 9 9 -3 4 -7 8 -9 8 -2 0 -6 -4
-9 -8z"/>
<path d="M485 60 c-3 -6 1 -7 9 -4 18 7 21 14 7 14 -6 0 -13 -4 -16 -10z"/>
</g>
</svg>
